<svg width="32" height="32" viewBox="0 0 32 32" fill="none" xmlns="http://www.w3.org/2000/svg">
<path d="M16 2.66675C14.2491 2.66675 12.5152 3.01162 10.8976 3.68169C9.2799 4.35175 7.81004 5.33388 6.57193 6.57199C4.07144 9.07248 2.66669 12.4639 2.66669 16.0001C2.66669 21.8934 6.49335 26.8934 11.7867 28.6667C12.4534 28.7734 12.6667 28.3601 12.6667 28.0001V25.7467C8.97335 26.5467 8.18669 23.9601 8.18669 23.9601C7.57335 22.4134 6.70669 22.0001 6.70669 22.0001C5.49335 21.1734 6.80002 21.2001 6.80002 21.2001C8.13335 21.2934 8.84002 22.5734 8.84002 22.5734C10 24.6001 11.96 24.0001 12.72 23.6801C12.84 22.8134 13.1867 22.2267 13.56 21.8934C10.6 21.5601 7.49335 20.4134 7.49335 15.3334C7.49335 13.8534 8.00002 12.6667 8.86669 11.7201C8.73335 11.3867 8.26669 10.0001 9.00002 8.20008C9.00002 8.20008 10.12 7.84008 12.6667 9.56008C13.72 9.26675 14.8667 9.12008 16 9.12008C17.1334 9.12008 18.28 9.26675 19.3334 9.56008C21.88 7.84008 23 8.20008 23 8.20008C23.7334 10.0001 23.2667 11.3867 23.1334 11.7201C24 12.6667 24.5067 13.8534 24.5067 15.3334C24.5067 20.4267 21.3867 21.5467 18.4134 21.8801C18.8934 22.2934 19.3334 23.1067 19.3334 24.3467V28.0001C19.3334 28.3601 19.5467 28.7867 20.2267 28.6667C25.52 26.8801 29.3334 21.8934 29.3334 16.0001C29.3334 14.2491 28.9885 12.5153 28.3184 10.8976C27.6484 9.27996 26.6662 7.81011 25.4281 6.57199C24.19 5.33388 22.7201 4.35175 21.1025 3.68169C19.4848 3.01162 17.751 2.66675 16 2.66675Z" fill="#8E48A5"/>
</svg>
