<svg width="41" height="40" viewBox="0 0 41 40" fill="none" xmlns="http://www.w3.org/2000/svg">
<path d="M12.1665 28.355L19.5215 28.33L35.5748 12.43C36.2048 11.8 36.5515 10.9633 36.5515 10.0733C36.5515 9.18331 36.2048 8.34665 35.5748 7.71665L32.9315 5.07331C31.6715 3.81331 29.4732 3.81998 28.2232 5.06831L12.1665 20.9716V28.355ZM30.4997 6.81818L34.1361 10.0683L30.4997 13.1818L27.3179 10.0683L30.4997 6.81818ZM15.0451 22.2727L25.0451 12.43L28.6815 15.4545L18.227 25.4545H15.0451V22.2727Z" fill="#130F26"/>
<path d="M8.83333 35H32.1667C34.005 35 35.5 33.505 35.5 31.6667V17.22L32.7727 19.5V32.2727H23.2273H13.6818H8.22727V7.72727H21.5L23.5783 5H8.83333C6.995 5 5.5 6.495 5.5 8.33333V31.6667C5.5 33.505 6.995 35 8.83333 35Z" fill="#130F26"/>
</svg>
