<svg width="45" height="44" viewBox="0 0 45 44" fill="none" xmlns="http://www.w3.org/2000/svg">
<g id="catppuccin:android">
<path id="Vector" d="M4.625 17.875V31.625M40.375 17.875V31.625M10.125 15.125H34.875M10.125 15.125V33C10.125 34.094 10.5596 35.1432 11.3332 35.9168C12.1068 36.6904 13.156 37.125 14.25 37.125H30.75C33.0325 37.125 34.875 35.2825 34.875 33V15.125M10.125 15.125C10.125 8.2775 15.6525 4.125 22.5 4.125C29.3475 4.125 34.875 8.2775 34.875 15.125M12.875 1.375L15.625 5.5M32.125 1.375L29.375 5.5M15.625 37.125V42.625M29.375 37.125V42.625" stroke="#130F26" stroke-width="2.5" stroke-linecap="round" stroke-linejoin="round"/>
</g>
</svg>
