<svg width="41" height="40" viewBox="0 0 41 40" fill="none" xmlns="http://www.w3.org/2000/svg">
<g clip-path="url(#clip0_493_346)">
<path d="M35.412 10.1L20.9675 3.43335C20.8213 3.36566 20.662 3.3306 20.5009 3.3306C20.3397 3.3306 20.1805 3.36566 20.0342 3.43335L5.58976 10.1C5.39689 10.1893 5.23367 10.332 5.11945 10.5112C5.00522 10.6904 4.94479 10.8986 4.94532 11.1111V30C4.94479 30.2125 5.00522 30.4207 5.11945 30.6C5.23367 30.7792 5.39689 30.9219 5.58976 31.0111L20.0342 37.6778C20.1805 37.7455 20.3397 37.7805 20.5009 37.7805C20.662 37.7805 20.8213 37.7455 20.9675 37.6778L35.412 31.0111C35.6049 30.9219 35.7681 30.7792 35.8823 30.6C35.9965 30.4207 36.057 30.2125 36.0564 30V11.1111C36.057 10.8986 35.9965 10.6904 35.8823 10.5112C35.7681 10.332 35.6049 10.1893 35.412 10.1ZM20.5009 16.5556L8.71198 11.1111L20.5009 5.66668L32.2898 11.1111L20.5009 16.5556ZM33.8342 29.2889L21.612 34.9333V18.4889L33.8342 12.8445V29.2889Z" fill="#130F26"/>
</g>
<defs>
<clipPath id="clip0_493_346">
<rect width="40" height="40" fill="white" transform="translate(0.5)"/>
</clipPath>
</defs>
</svg>
