<svg width="41" height="40" viewBox="0 0 41 40" fill="none" xmlns="http://www.w3.org/2000/svg">
<path d="M35.5501 17.85C36.1342 16.4201 36.3294 14.861 36.1159 13.3312C35.9023 11.8014 35.2876 10.3554 34.3342 9.14015C33.3808 7.92487 32.1227 6.98362 30.6877 6.41205C29.2527 5.84049 27.692 5.65897 26.1641 5.88595C25.2173 4.66629 23.9645 3.71889 22.5331 3.13997C21.1017 2.56104 19.5426 2.3712 18.0141 2.58972C16.4856 2.80824 15.0421 3.42733 13.8302 4.38414C12.6184 5.34095 11.6813 6.6014 11.1141 8.03751C9.5837 8.247 8.13602 8.85789 6.91818 9.80811C5.70034 10.7583 4.75575 12.014 4.1804 13.4475C3.60505 14.8811 3.41945 16.4414 3.64245 17.9699C3.86545 19.4984 4.48911 20.9406 5.45005 22.15C4.98112 23.2992 4.76204 24.5349 4.80734 25.7753C4.85264 27.0156 5.1613 28.2321 5.71281 29.344C6.26432 30.4559 7.04607 31.4377 8.00614 32.2243C8.96622 33.0109 10.0826 33.5842 11.2813 33.9063C12.0243 34.1096 12.7907 34.2147 13.561 34.2188C13.9883 34.2182 14.4149 34.1863 14.8376 34.1234C15.7846 35.3427 17.0373 36.2896 18.4687 36.8682C19.9 37.4468 21.4589 37.6363 22.9871 37.4177C24.5154 37.199 25.9586 36.5799 27.1702 35.6232C28.3819 34.6665 29.3188 33.4062 29.886 31.9703C31.4164 31.7608 32.8641 31.1499 34.0819 30.1997C35.2998 29.2495 36.2444 27.9938 36.8197 26.5603C37.3951 25.1267 37.5807 23.5665 37.3577 22.0379C37.1347 20.5094 36.511 19.0672 35.5501 17.8578V17.85ZM29.0704 8.5047C30.6455 8.92576 31.9937 9.94568 32.8274 11.3468C33.6611 12.748 33.9143 14.4195 33.5329 16.0047C33.3845 15.9054 33.2329 15.811 33.0782 15.7219L26.1251 11.7C25.935 11.5903 25.7195 11.5325 25.5001 11.5325C25.2806 11.5325 25.0651 11.5903 24.8751 11.7L18.0001 15.6703V12.7828L24.3282 9.1297C25.0381 8.71734 25.8227 8.44979 26.6367 8.34251C27.4507 8.23523 28.2778 8.29036 29.0704 8.5047ZM23.0001 21.4438L20.5001 22.8875L18.0001 21.4438V18.5563L20.5001 17.1125L23.0001 18.5563V21.4438ZM13.0001 11.25C13.0006 10.0281 13.3594 8.83323 14.0318 7.81308C14.7043 6.79292 15.6611 5.99226 16.7838 5.51012C17.9066 5.02797 19.146 4.8855 20.3488 5.10031C21.5517 5.31513 22.6652 5.8778 23.5516 6.71876C23.3954 6.79845 23.2391 6.87501 23.0829 6.97188L16.1251 10.9797C15.9352 11.0893 15.7775 11.2469 15.6678 11.4367C15.5581 11.6265 15.5003 11.8417 15.5001 12.0609V20L13.0001 18.5563V11.25ZM6.88443 13.5828C7.68084 12.1939 8.98287 11.1661 10.5188 10.7141C10.5071 10.8925 10.5008 11.0712 10.5001 11.25V19.2781C10.5 19.4976 10.5577 19.7132 10.6674 19.9033C10.7772 20.0934 10.935 20.2512 11.1251 20.3609L18.0001 24.3297L15.5001 25.7813L9.17193 22.1203C7.73647 21.2915 6.68904 19.9264 6.26006 18.3253C5.83107 16.7242 6.05566 15.0183 6.88443 13.5828ZM11.9297 31.4953C10.3546 31.0743 9.00639 30.0543 8.17269 28.6532C7.339 27.252 7.08584 25.5805 7.46724 23.9953C7.61568 24.0938 7.76568 24.1891 7.92193 24.2781L14.8751 28.3C15.0651 28.4097 15.2806 28.4675 15.5001 28.4675C15.7195 28.4675 15.935 28.4097 16.1251 28.3L23.0001 24.3297V27.2172L16.6719 30.8703C15.962 31.2827 15.1774 31.5502 14.3634 31.6575C13.5494 31.7648 12.7223 31.7097 11.9297 31.4953ZM28.0001 28.75C28.0007 29.9722 27.643 31.1678 26.9712 32.1889C26.2993 33.2099 25.3429 34.0115 24.2202 34.4946C23.0974 34.9776 21.8577 35.1209 20.6544 34.9066C19.4511 34.6923 18.337 34.13 17.4501 33.2891C17.6063 33.2094 17.7626 33.125 17.9188 33.0344L24.8751 29.0203C25.0649 28.9107 25.2226 28.7531 25.3323 28.5633C25.442 28.3736 25.4998 28.1583 25.5001 27.9391V20L28.0001 21.4438V28.75ZM34.1157 26.4172C33.3193 27.8061 32.0172 28.8339 30.4813 29.2859C30.4922 29.1078 30.5001 28.9297 30.5001 28.75V20.7219C30.5001 20.5024 30.4424 20.2868 30.3327 20.0967C30.2229 19.9066 30.0651 19.7488 29.8751 19.6391L23.0001 15.6703L25.5001 14.2266L31.8282 17.8797C33.2636 18.7085 34.3111 20.0736 34.74 21.6747C35.169 23.2758 34.9444 24.9817 34.1157 26.4172Z" fill="#130F26"/>
</svg>
