<svg width="37" height="38" viewBox="0 0 37 38" fill="none" xmlns="http://www.w3.org/2000/svg">
<path d="M24.4582 0.666687C24.7904 0.666701 25.1115 0.787032 25.3619 1.00543C25.6123 1.22382 25.7751 1.52551 25.8203 1.85469L25.8332 2.04169V6.30419C27.1547 6.57332 28.3679 7.22522 29.3218 8.17872C30.2756 9.13223 30.9279 10.3452 31.1975 11.6667H35.46C35.8084 11.6668 36.1437 11.7991 36.3983 12.037C36.6528 12.2748 36.8076 12.6004 36.8314 12.948C36.8551 13.2955 36.7461 13.6392 36.5262 13.9094C36.3064 14.1796 35.9921 14.3564 35.647 14.4039L35.46 14.4167H31.3332V17.625H35.4582C35.7904 17.625 36.1115 17.7454 36.3619 17.9638C36.6123 18.1822 36.7752 18.4838 36.8203 18.813L36.8332 19C36.8332 19.3323 36.7128 19.6533 36.4944 19.9037C36.276 20.1541 35.9743 20.317 35.6452 20.3622L35.4582 20.375H31.3332V23.5834H35.4582C35.7904 23.5834 36.1115 23.7037 36.3619 23.9221C36.6123 24.1405 36.7752 24.4422 36.8203 24.7714L36.8332 24.9584C36.8332 25.2906 36.7128 25.6116 36.4944 25.8621C36.276 26.1125 35.9743 26.2753 35.6452 26.3205L35.4582 26.3334H31.1957C30.9265 27.6549 30.2746 28.8681 29.3211 29.822C28.3676 30.7758 27.1546 31.4281 25.8332 31.6977V35.9602C25.8331 36.3086 25.7007 36.6439 25.4629 36.8985C25.2251 37.153 24.8995 37.3078 24.5519 37.3316C24.2043 37.3553 23.8607 37.2462 23.5905 37.0264C23.3202 36.8065 23.1435 36.4923 23.096 36.1472L23.0832 35.9602V31.8334H19.873L19.8748 35.9602C19.8748 36.2925 19.7545 36.6135 19.5361 36.8639C19.3177 37.1143 19.016 37.2772 18.6868 37.3224L18.4998 37.3334C18.1676 37.3333 17.8465 37.213 17.5961 36.9946C17.3457 36.7762 17.1829 36.4745 17.1377 36.1454L17.1248 35.9584L17.123 31.8315H13.9165V35.9584C13.9165 36.2906 13.7962 36.6116 13.5778 36.8621C13.3594 37.1125 13.0577 37.2753 12.7285 37.3205L12.5415 37.3334C12.2092 37.3333 11.8882 37.213 11.6378 36.9946C11.3874 36.7762 11.2245 36.4745 11.1793 36.1454L11.1665 35.9584V31.6959C9.84528 31.4264 8.63246 30.7744 7.67898 29.8209C6.7255 28.8674 6.07346 27.6546 5.804 26.3334H1.5415C1.19313 26.3332 0.857779 26.2009 0.603219 25.9631C0.348659 25.7252 0.193868 25.3996 0.170123 25.0521C0.146378 24.7045 0.255449 24.3609 0.475297 24.0906C0.695145 23.8204 1.00938 23.6437 1.3545 23.5962L1.5415 23.5834L5.6665 23.5815V20.3732L1.5415 20.375C1.20924 20.375 0.88821 20.2547 0.637798 20.0363C0.387385 19.8179 0.224526 19.5162 0.179337 19.187L0.166504 19C0.166518 18.6678 0.286849 18.3467 0.505243 18.0963C0.723638 17.8459 1.02532 17.683 1.3545 17.6379L1.5415 17.625L5.6665 17.6232V14.4149L1.5415 14.4167C1.20924 14.4167 0.88821 14.2963 0.637798 14.0779C0.387385 13.8596 0.224526 13.5579 0.179337 13.2287L0.166504 13.0417C0.166518 12.7094 0.286849 12.3884 0.505243 12.138C0.723638 11.8876 1.02532 11.7247 1.3545 11.6795L1.5415 11.6667L5.804 11.6649C6.07378 10.344 6.72596 9.13154 7.67942 8.17841C8.63288 7.22528 9.84552 6.57351 11.1665 6.30419V2.04169C11.1666 1.69331 11.299 1.35796 11.5368 1.1034C11.7746 0.848842 12.1002 0.694052 12.4478 0.670306C12.7954 0.646561 13.139 0.755632 13.4092 0.97548C13.6795 1.19533 13.8562 1.50956 13.9037 1.85469L13.9165 2.04169V6.16485H17.123L17.1248 2.04169C17.1249 1.70942 17.2452 1.38839 17.4636 1.13798C17.682 0.887568 17.9837 0.724709 18.3128 0.67952L18.4998 0.666687C18.8321 0.666701 19.1531 0.787032 19.4035 1.00543C19.654 1.22382 19.8168 1.52551 19.862 1.85469L19.8748 2.04169L19.873 6.16485H23.0832V2.04169C23.0831 1.74087 23.1817 1.44833 23.3638 1.20891C23.546 0.96949 23.8016 0.796406 24.0915 0.716187L24.2712 0.67952L24.4582 0.666687ZM24.4582 8.91669H12.5415C11.4475 8.91669 10.3983 9.35128 9.62469 10.1249C8.8511 10.8985 8.4165 11.9477 8.4165 13.0417V24.9584C8.4165 26.0524 8.8511 27.1016 9.62469 27.8752C10.3983 28.6488 11.4475 29.0834 12.5415 29.0834H24.4582C25.5522 29.0834 26.6014 28.6488 27.375 27.8752C28.1486 27.1016 28.5832 26.0524 28.5832 24.9584V13.0417C28.5832 11.9477 28.1486 10.8985 27.375 10.1249C26.6014 9.35128 25.5522 8.91669 24.4582 8.91669ZM18.509 13.5092C19.9677 13.5092 21.3666 14.0886 22.3981 15.1201C23.4295 16.1515 24.009 17.5505 24.009 19.0092C24.009 20.4679 23.4295 21.8668 22.3981 22.8983C21.3666 23.9297 19.9677 24.5092 18.509 24.5092C17.0503 24.5092 15.6514 23.9297 14.6199 22.8983C13.5885 21.8668 13.009 20.4679 13.009 19.0092C13.009 17.5505 13.5885 16.1515 14.6199 15.1201C15.6514 14.0886 17.0503 13.5092 18.509 13.5092ZM18.509 16.2592C17.7797 16.2592 17.0802 16.5489 16.5645 17.0646C16.0487 17.5804 15.759 18.2798 15.759 19.0092C15.759 19.7385 16.0487 20.438 16.5645 20.9537C17.0802 21.4695 17.7797 21.7592 18.509 21.7592C19.2383 21.7592 19.9378 21.4695 20.4535 20.9537C20.9693 20.438 21.259 19.7385 21.259 19.0092C21.259 18.2798 20.9693 17.5804 20.4535 17.0646C19.9378 16.5489 19.2383 16.2592 18.509 16.2592Z" fill="#130F26"/>
</svg>
